<?xml version="1.0" encoding="UTF-8"?>
<svg version="1.1" xmlns="http://www.w3.org/2000/svg" width="736" height="736">
<path d="M0 0 C75.85006655 -0.99013588 151.14502774 8.20262609 220.76818848 40.02996826 C222.05813721 40.60932129 222.05813721 40.60932129 223.37414551 41.20037842 C241.85711131 49.5267449 258.97852866 59.47343741 275.09729004 71.77362061 C276.75666082 73.02130062 278.43836866 74.22863189 280.13537598 75.42449951 C281.65518066 76.49764404 281.65518066 76.49764404 283.20568848 77.59246826 C284.09127441 78.21250732 284.97686035 78.83254639 285.88928223 79.47137451 C286.50932129 79.98571045 287.12936035 80.50004639 287.76818848 81.02996826 C287.76818848 81.68996826 287.76818848 82.34996826 287.76818848 83.02996826 C288.35729004 83.29164795 288.9463916 83.55332764 289.55334473 83.82293701 C291.88604282 85.09419576 293.37173216 86.43227357 295.20568848 88.34246826 C296.11641113 89.28026123 296.11641113 89.28026123 297.04553223 90.23699951 C297.61400879 90.8286792 298.18248535 91.42035889 298.76818848 92.02996826 C299.59318848 92.85496826 300.41818848 93.67996826 301.26818848 94.52996826 C302.09318848 95.35496826 302.91818848 96.17996826 303.76818848 97.02996826 C304.26705566 97.49403076 304.76592285 97.95809326 305.27990723 98.43621826 C321.96049553 114.30027427 333.72780196 135.74104859 339.70568848 157.84246826 C339.90509033 158.56966064 340.10449219 159.29685303 340.30993652 160.04608154 C343.14972939 171.39766335 342.95477892 183.24600873 342.95349121 194.87786865 C342.95568947 197.09347441 342.97396631 199.30858969 342.99279785 201.52410889 C343.02590822 209.8640292 342.53185008 217.84869644 340.76818848 226.02996826 C340.53100098 227.13469482 340.29381348 228.23942139 340.04943848 229.37762451 C335.06837542 246.68681863 325.1373039 261.30366582 313.76818848 275.02996826 C312.94931152 276.0383374 312.94931152 276.0383374 312.1138916 277.06707764 C311.58215332 277.70967529 311.05041504 278.35227295 310.50256348 279.01434326 C309.78665039 279.88397705 309.78665039 279.88397705 309.05627441 280.7711792 C307.76818848 282.02996826 307.76818848 282.02996826 305.76818848 282.02996826 C305.50006348 282.66934326 305.23193848 283.30871826 304.95568848 283.96746826 C303.76818848 286.02996826 303.76818848 286.02996826 300.76818848 287.02996826 C300.76818848 287.68996826 300.76818848 288.34996826 300.76818848 289.02996826 C299.44006348 290.40496826 299.44006348 290.40496826 297.51818848 292.02996826 C296.77955566 292.65516357 296.04092285 293.28035889 295.27990723 293.92449951 C294.45104004 294.6193042 293.62217285 295.31410889 292.76818848 296.02996826 C291.90838379 296.77633545 291.0485791 297.52270264 290.16271973 298.29168701 C277.31160636 309.29933032 263.37818706 318.54193964 248.76818848 327.02996826 C247.84650879 327.59844482 246.9248291 328.16692139 245.97521973 328.75262451 C185.8620323 365.44508956 106.61478535 383.9623851 36.56896973 384.23309326 C34.73645912 384.24361473 34.73645912 384.24361473 32.8669281 384.25434875 C28.93816452 384.27177394 25.00948247 384.27878406 21.08068848 384.27996826 C20.07542366 384.28063105 20.07542366 384.28063105 19.04985046 384.28130722 C-2.18485611 384.28864672 -23.155552 383.85800516 -44.23181152 381.02996826 C-44.89024048 380.94275513 -45.54866943 380.85554199 -46.22705078 380.76568604 C-117.32138179 371.29579698 -188.28042471 348.79773752 -245.49353027 304.37762451 C-247.00154697 303.20848797 -248.52186973 302.05525761 -250.04431152 300.90496826 C-268.00569224 286.88632965 -282.91888832 269.76417062 -294.23181152 250.02996826 C-294.93950684 248.80406982 -294.93950684 248.80406982 -295.66149902 247.55340576 C-298.35839905 242.54487714 -300.24600099 237.36783729 -301.98181152 231.96746826 C-302.19281494 231.31866699 -302.40381836 230.66986572 -302.62121582 230.00140381 C-304.98949679 222.26294613 -305.38763658 214.41602284 -305.39978027 206.36590576 C-305.40310867 205.57076569 -305.40643707 204.77562561 -305.40986633 203.95639038 C-305.41489218 202.2841448 -305.41727602 200.61188935 -305.41711426 198.93963623 C-305.41928825 196.43181046 -305.4374564 193.92443459 -305.4564209 191.41668701 C-305.57702069 157.66874246 -294.81742638 130.15977808 -273.17712402 104.36981201 C-271.22337169 102.08162646 -271.22337169 102.08162646 -269.59899902 99.72137451 C-268.92224121 98.88412842 -268.92224121 98.88412842 -268.23181152 98.02996826 C-267.57181152 98.02996826 -266.91181152 98.02996826 -266.23181152 98.02996826 C-265.73681152 96.54496826 -265.73681152 96.54496826 -265.23181152 95.02996826 C-264.57181152 95.02996826 -263.91181152 95.02996826 -263.23181152 95.02996826 C-262.97013184 94.43313232 -262.70845215 93.83629639 -262.43884277 93.22137451 C-261.15314005 90.88713752 -259.95284057 89.67005896 -257.91931152 87.96746826 C-255.43399 85.88015197 -252.96738526 83.79252427 -250.55212402 81.62371826 C-185.54172597 23.70496812 -85.0503284 1.14203663 0 0 Z " fill="#EBE7E4" transform="translate(358.2318115234375,190.97003173828125)"/>
<path d="M0 0 C75.85006655 -0.99013588 151.14502774 8.20262609 220.76818848 40.02996826 C222.05813721 40.60932129 222.05813721 40.60932129 223.37414551 41.20037842 C241.85711131 49.5267449 258.97852866 59.47343741 275.09729004 71.77362061 C276.75666082 73.02130062 278.43836866 74.22863189 280.13537598 75.42449951 C281.65518066 76.49764404 281.65518066 76.49764404 283.20568848 77.59246826 C284.09127441 78.21250732 284.97686035 78.83254639 285.88928223 79.47137451 C286.50932129 79.98571045 287.12936035 80.50004639 287.76818848 81.02996826 C287.76818848 81.68996826 287.76818848 82.34996826 287.76818848 83.02996826 C288.35729004 83.29164795 288.9463916 83.55332764 289.55334473 83.82293701 C291.88604282 85.09419576 293.37173216 86.43227357 295.20568848 88.34246826 C296.11641113 89.28026123 296.11641113 89.28026123 297.04553223 90.23699951 C297.61400879 90.8286792 298.18248535 91.42035889 298.76818848 92.02996826 C299.59318848 92.85496826 300.41818848 93.67996826 301.26818848 94.52996826 C302.09318848 95.35496826 302.91818848 96.17996826 303.76818848 97.02996826 C304.26705566 97.49403076 304.76592285 97.95809326 305.27990723 98.43621826 C321.96049553 114.30027427 333.72780196 135.74104859 339.70568848 157.84246826 C339.90509033 158.56966064 340.10449219 159.29685303 340.30993652 160.04608154 C343.14972939 171.39766335 342.95477892 183.24600873 342.95349121 194.87786865 C342.95568947 197.09347441 342.97396631 199.30858969 342.99279785 201.52410889 C343.02590822 209.8640292 342.53185008 217.84869644 340.76818848 226.02996826 C340.53100098 227.13469482 340.29381348 228.23942139 340.04943848 229.37762451 C335.06837542 246.68681863 325.1373039 261.30366582 313.76818848 275.02996826 C312.94931152 276.0383374 312.94931152 276.0383374 312.1138916 277.06707764 C311.58215332 277.70967529 311.05041504 278.35227295 310.50256348 279.01434326 C309.78665039 279.88397705 309.78665039 279.88397705 309.05627441 280.7711792 C307.76818848 282.02996826 307.76818848 282.02996826 305.76818848 282.02996826 C305.50006348 282.66934326 305.23193848 283.30871826 304.95568848 283.96746826 C303.76818848 286.02996826 303.76818848 286.02996826 300.76818848 287.02996826 C300.76818848 287.68996826 300.76818848 288.34996826 300.76818848 289.02996826 C299.44006348 290.40496826 299.44006348 290.40496826 297.51818848 292.02996826 C296.77955566 292.65516357 296.04092285 293.28035889 295.27990723 293.92449951 C294.45104004 294.6193042 293.62217285 295.31410889 292.76818848 296.02996826 C291.90838379 296.77633545 291.0485791 297.52270264 290.16271973 298.29168701 C277.31160636 309.29933032 263.37818706 318.54193964 248.76818848 327.02996826 C247.84650879 327.59844482 246.9248291 328.16692139 245.97521973 328.75262451 C185.8620323 365.44508956 106.61478535 383.9623851 36.56896973 384.23309326 C34.73645912 384.24361473 34.73645912 384.24361473 32.8669281 384.25434875 C28.93816452 384.27177394 25.00948247 384.27878406 21.08068848 384.27996826 C20.07542366 384.28063105 20.07542366 384.28063105 19.04985046 384.28130722 C-2.18485611 384.28864672 -23.155552 383.85800516 -44.23181152 381.02996826 C-44.89024048 380.94275513 -45.54866943 380.85554199 -46.22705078 380.76568604 C-117.32138179 371.29579698 -188.28042471 348.79773752 -245.49353027 304.37762451 C-247.00154697 303.20848797 -248.52186973 302.05525761 -250.04431152 300.90496826 C-268.00569224 286.88632965 -282.91888832 269.76417062 -294.23181152 250.02996826 C-294.93950684 248.80406982 -294.93950684 248.80406982 -295.66149902 247.55340576 C-298.35839905 242.54487714 -300.24600099 237.36783729 -301.98181152 231.96746826 C-302.19281494 231.31866699 -302.40381836 230.66986572 -302.62121582 230.00140381 C-304.98949679 222.26294613 -305.38763658 214.41602284 -305.39978027 206.36590576 C-305.40310867 205.57076569 -305.40643707 204.77562561 -305.40986633 203.95639038 C-305.41489218 202.2841448 -305.41727602 200.61188935 -305.41711426 198.93963623 C-305.41928825 196.43181046 -305.4374564 193.92443459 -305.4564209 191.41668701 C-305.57702069 157.66874246 -294.81742638 130.15977808 -273.17712402 104.36981201 C-271.22337169 102.08162646 -271.22337169 102.08162646 -269.59899902 99.72137451 C-268.92224121 98.88412842 -268.92224121 98.88412842 -268.23181152 98.02996826 C-267.57181152 98.02996826 -266.91181152 98.02996826 -266.23181152 98.02996826 C-265.73681152 96.54496826 -265.73681152 96.54496826 -265.23181152 95.02996826 C-264.57181152 95.02996826 -263.91181152 95.02996826 -263.23181152 95.02996826 C-262.97013184 94.43313232 -262.70845215 93.83629639 -262.43884277 93.22137451 C-261.15314005 90.88713752 -259.95284057 89.67005896 -257.91931152 87.96746826 C-255.43399 85.88015197 -252.96738526 83.79252427 -250.55212402 81.62371826 C-185.54172597 23.70496812 -85.0503284 1.14203663 0 0 Z M-82.23181152 47.02996826 C-84.75228773 47.63562309 -87.2731327 48.23974494 -89.79431152 48.84246826 C-96.69250805 50.54014981 -103.49466259 52.53843564 -110.29431152 54.59246826 C-111.2702124 54.88548828 -112.24611328 55.1785083 -113.25158691 55.48040771 C-118.41045223 57.06017939 -123.30631585 58.83426537 -128.23181152 61.02996826 C-131.62683372 62.32276202 -135.03108553 63.58758271 -138.43884277 64.84637451 C-141.30836001 65.85641308 -141.30836001 65.85641308 -143.23181152 68.02996826 C-144.7111765 68.6068102 -146.2151929 69.12221801 -147.73181152 69.59246826 C-150.006432 70.30513344 -152.09921002 70.96366751 -154.23181152 72.02996826 C-154.23181152 72.68996826 -154.23181152 73.34996826 -154.23181152 74.02996826 C-155.15993652 74.23621826 -156.08806152 74.44246826 -157.04431152 74.65496826 C-162.52237608 76.1879246 -167.3310734 79.21182229 -172.23181152 82.02996826 C-172.23181152 82.68996826 -172.23181152 83.34996826 -172.23181152 84.02996826 C-173.09806152 84.27746826 -173.96431152 84.52496826 -174.85681152 84.77996826 C-178.44241216 86.1079685 -181.1950914 87.71627674 -184.23181152 90.02996826 C-184.23181152 90.68996826 -184.23181152 91.34996826 -184.23181152 92.02996826 C-186.21181152 92.68996826 -188.19181152 93.34996826 -190.23181152 94.02996826 C-190.23181152 94.68996826 -190.23181152 95.34996826 -190.23181152 96.02996826 C-190.78868652 96.09184326 -191.34556152 96.15371826 -191.91931152 96.21746826 C-195.18716874 97.36563431 -196.8143955 99.56371555 -199.23181152 102.02996826 C-201.10207334 103.70195017 -202.97734627 105.3683386 -204.85681152 107.02996826 C-226.21897522 126.36695243 -241.80885451 151.77830082 -243.51696777 181.03778076 C-244.21475071 212.04361391 -229.85042005 237.53270239 -209.34899902 259.85809326 C-206.75853161 262.51547312 -204.05689072 264.97190173 -201.21618652 267.35809326 C-199.80506722 268.54698905 -198.42215911 269.76972263 -197.05993652 271.01434326 C-196.35353027 271.65887451 -195.64712402 272.30340576 -194.91931152 272.96746826 C-193.9660498 273.84725342 -193.9660498 273.84725342 -192.99353027 274.74481201 C-191.19131334 276.32463961 -191.19131334 276.32463961 -188.23181152 276.02996826 C-188.23181152 276.68996826 -188.23181152 277.34996826 -188.23181152 278.02996826 C-185.92947187 279.72374678 -183.63140047 281.29763578 -181.23181152 282.84246826 C-180.53773193 283.29533203 -179.84365234 283.7481958 -179.12854004 284.21478271 C-177.76157688 285.1046483 -176.39257164 285.99138628 -175.0213623 286.87469482 C-173.65575576 287.75628421 -172.29910973 288.65176946 -170.94665527 289.55340576 C-155.43936787 299.70982696 -136.46402289 308.16449628 -118.69665527 313.25653076 C-116.31145633 314.00497671 -114.08673491 314.91171723 -111.79431152 315.90496826 C-106.03101412 318.29485235 -100.04396071 319.75590781 -94.00744629 321.27947998 C-90.63932233 322.12969942 -87.34547484 322.99110184 -84.05603027 324.11590576 C-80.96512101 325.11628303 -78.01197514 325.59734122 -74.79431152 326.02996826 C-71.45749187 326.47969606 -68.3597242 326.99125572 -65.13415527 327.96746826 C-59.62642358 329.60861883 -53.90904905 330.23141178 -48.23181152 331.02996826 C-47.12063965 331.19496826 -46.00946777 331.35996826 -44.86462402 331.52996826 C-23.04628443 334.63993203 -1.3153874 335.46710422 20.70568848 335.46746826 C21.75013123 335.4690563 21.75013123 335.4690563 22.81567383 335.47067642 C46.74292352 335.50493882 70.17371127 334.22236062 93.76818848 330.02996826 C94.47221802 329.90644989 95.17624756 329.78293152 95.90161133 329.65567017 C103.51982286 328.30938726 111.08787944 326.90149234 118.51818848 324.71746826 C119.25077881 324.50799561 119.98336914 324.29852295 120.73815918 324.08270264 C123.08432778 323.40777403 125.42650199 322.72027543 127.76818848 322.02996826 C128.59431641 321.78843018 129.42044434 321.54689209 130.27160645 321.29803467 C141.18320001 318.10149866 152.01712891 314.73198406 162.76818848 311.02996826 C163.71693848 310.71543701 164.66568848 310.40090576 165.64318848 310.07684326 C172.6929922 307.65859664 179.22195245 304.42992227 185.83996582 301.01824951 C189.30185384 299.24391136 192.78663669 297.51530612 196.26818848 295.77996826 C197.57036742 295.12911784 198.87245494 294.47808448 200.17443848 293.82684326 C203.37235514 292.22788493 206.57027181 290.6289266 209.76818848 289.02996826 C209.76818848 288.36996826 209.76818848 287.70996826 209.76818848 287.02996826 C210.40756348 286.80309326 211.04693848 286.57621826 211.70568848 286.34246826 C215.90139109 284.54431 219.80719404 282.29092805 223.76818848 280.02996826 C223.76818848 279.36996826 223.76818848 278.70996826 223.76818848 278.02996826 C224.42818848 278.02996826 225.08818848 278.02996826 225.76818848 278.02996826 C225.76818848 277.36996826 225.76818848 276.70996826 225.76818848 276.02996826 C227.76818848 275.02996826 229.76818848 274.02996826 231.76818848 273.02996826 C231.76818848 272.36996826 231.76818848 271.70996826 231.76818848 271.02996826 C232.85100098 270.65871826 232.85100098 270.65871826 233.95568848 270.27996826 C239.60127861 267.77081709 243.13515047 263.59103773 247.06896973 258.98309326 C249.18800163 256.5474244 251.48603713 254.31211961 253.76818848 252.02996826 C255.13892633 250.3939263 256.46874104 248.72318765 257.76818848 247.02996826 C258.44687988 246.16758545 258.44687988 246.16758545 259.13928223 245.28778076 C264.44916913 238.41940757 269.25579759 231.40460454 271.76818848 223.02996826 C272.42818848 222.36996826 273.08818848 221.70996826 273.76818848 221.02996826 C274.57992171 219.04467869 274.57992171 219.04467869 275.24084473 216.74090576 C275.50059082 215.88110107 275.76033691 215.02129639 276.0279541 214.13543701 C276.42530762 212.78385498 276.42530762 212.78385498 276.83068848 211.40496826 C277.09945801 210.5271167 277.36822754 209.64926514 277.6451416 208.74481201 C283.92454823 187.66730247 280.69334448 167.07779372 272.76818848 147.02996826 C272.10818848 147.02996826 271.44818848 147.02996826 270.76818848 147.02996826 C270.61350098 145.94715576 270.61350098 145.94715576 270.45568848 144.84246826 C269.69360712 141.72486272 268.46671417 139.7468138 266.76818848 137.02996826 C266.2242041 136.13278076 265.68021973 135.23559326 265.11975098 134.31121826 C262.01282882 129.30640248 259.04807408 125.05809589 254.76818848 121.02996826 C254.43818848 120.03996826 254.10818848 119.04996826 253.76818848 118.02996826 C249.46800794 113.32664579 244.55440168 109.22710907 239.76818848 105.02996826 C239.08627441 104.4202417 238.40436035 103.81051514 237.70178223 103.18231201 C234.68531305 100.10836491 234.68531305 100.10836491 230.76818848 99.02996826 C230.43818848 98.03996826 230.10818848 97.04996826 229.76818848 96.02996826 C227.72547125 94.29661982 227.72547125 94.29661982 225.20568848 92.65496826 C224.30721191 92.04781982 223.40873535 91.44067139 222.48303223 90.81512451 C221.58713379 90.22602295 220.69123535 89.63692139 219.76818848 89.02996826 C218.59449707 88.25459717 218.59449707 88.25459717 217.39709473 87.46356201 C213.85322291 84.92107626 213.85322291 84.92107626 209.76818848 84.02996826 C209.76818848 83.36996826 209.76818848 82.70996826 209.76818848 82.02996826 C201.14627364 77.66549551 192.49150703 73.37606917 183.76818848 69.21746826 C182.99241455 68.84500977 182.21664063 68.47255127 181.4173584 68.08880615 C177.77631662 66.36229176 174.14639105 64.75767336 170.36193848 63.36981201 C166.76818848 62.02996826 166.76818848 62.02996826 164.26818848 60.40496826 C160.77759372 58.48514114 157.72505894 58.36529627 153.76818848 58.02996826 C153.76818848 57.36996826 153.76818848 56.70996826 153.76818848 56.02996826 C152.95366211 55.81380859 152.13913574 55.59764893 151.29992676 55.37493896 C148.19201793 54.54962674 145.08442487 53.72313519 141.97692871 52.89627075 C139.89010946 52.34164994 137.80280003 51.78890198 135.7154541 51.23626709 C123.98766179 48.12404992 123.98766179 48.12404992 118.54162598 46.49090576 C107.71565511 43.25221397 96.95814031 41.58872099 85.72912598 40.33953857 C83.76818848 40.02996826 83.76818848 40.02996826 81.76818848 39.02996826 C61.36591419 35.33753212 40.27483414 35.69690856 19.62162018 35.66026688 C17.55208601 35.65505365 15.4826504 35.64422196 13.41314697 35.63198853 C-18.90739427 35.46395181 -50.96037116 38.65782603 -82.23181152 47.02996826 Z " fill="#E3B39F" transform="translate(358.2318115234375,190.97003173828125)"/>
<path d="M0 0 C2.13555332 0.00500099 4.2710881 0.00649258 6.40664673 0.00745392 C54.58866613 0.05373361 54.58866613 0.05373361 71.1847229 4.36823273 C74.90185278 5.32711018 78.42195341 5.7658125 82.2394104 6.12995148 C89.79948584 6.9666925 96.84746509 8.81467128 104.1300354 10.95417023 C109.1724394 12.43317645 114.26080583 13.69414253 119.3644104 14.94245148 C125.92771258 16.55695362 132.41793057 18.2760662 138.8644104 20.31745148 C138.8644104 20.97745148 138.8644104 21.63745148 138.8644104 22.31745148 C139.9987854 22.37932648 141.1331604 22.44120148 142.3019104 22.50495148 C146.67050728 23.04720738 149.6189903 24.70867254 153.35269165 26.94635773 C156.08718088 28.43905713 158.80531612 29.45998254 161.7394104 30.50495148 C168.53119185 33.01182364 174.79530745 36.30283746 181.15298462 39.75177765 C185.64994364 42.18696252 190.128151 44.38505764 194.8644104 46.31745148 C194.8644104 46.97745148 194.8644104 47.63745148 194.8644104 48.31745148 C195.5759729 48.5778421 196.2875354 48.83823273 197.0206604 49.10651398 C200.02863538 50.38738244 202.61614801 51.92460854 205.3644104 53.69245148 C206.2822229 54.27768585 207.2000354 54.86292023 208.1456604 55.46588898 C210.84567143 57.30468959 213.4117849 59.15807468 215.8644104 61.31745148 C215.8644104 61.97745148 215.8644104 62.63745148 215.8644104 63.31745148 C216.41355103 63.56108429 216.96269165 63.8047171 217.5284729 64.05573273 C225.19278936 68.19548894 231.42653091 74.62467672 236.8644104 81.31745148 C237.5244104 81.64745148 238.1844104 81.97745148 238.8644104 82.31745148 C239.8644104 83.98411814 240.8644104 85.65078481 241.8644104 87.31745148 C243.08688612 88.76512009 244.30982589 90.21242007 245.54019165 91.65338898 C247.95048847 94.68225755 249.88913241 97.99539305 251.8644104 101.31745148 C252.45995728 102.28811554 252.45995728 102.28811554 253.0675354 103.27838898 C255.8644104 107.94641274 255.8644104 107.94641274 255.8644104 111.31745148 C256.5244104 111.31745148 257.1844104 111.31745148 257.8644104 111.31745148 C266.63246221 136.13269246 269.65302937 160.40843414 258.8644104 185.31745148 C257.88750955 186.66780051 256.88973683 188.00349429 255.8644104 189.31745148 C255.17410947 190.96102511 254.48524738 192.60524958 253.8097229 194.25495148 C250.99556072 200.39494168 247.27866933 206.21346459 242.8644104 211.31745148 C242.17025024 212.1469632 242.17025024 212.1469632 241.46206665 212.99323273 C238.41543525 216.61353009 235.21142275 219.97043913 231.8644104 223.31745148 C231.1012854 224.28682648 230.3381604 225.25620148 229.5519104 226.25495148 C226.55902582 229.92457111 222.87719348 232.81942758 218.8644104 235.31745148 C218.2044104 235.31745148 217.5444104 235.31745148 216.8644104 235.31745148 C216.8644104 235.97745148 216.8644104 236.63745148 216.8644104 237.31745148 C213.40287194 240.31745148 213.40287194 240.31745148 210.8644104 240.31745148 C210.8644104 240.97745148 210.8644104 241.63745148 210.8644104 242.31745148 C210.2044104 242.31745148 209.5444104 242.31745148 208.8644104 242.31745148 C208.8644104 242.97745148 208.8644104 243.63745148 208.8644104 244.31745148 C199.45438762 249.68874988 199.45438762 249.68874988 194.8644104 251.31745148 C194.8644104 251.97745148 194.8644104 252.63745148 194.8644104 253.31745148 C193.8950354 253.80213898 192.9256604 254.28682648 191.9269104 254.78620148 C191.287052 255.10621124 190.6471936 255.42622101 189.98794556 255.75592804 C188.55558788 256.4719422 187.12296454 257.18742514 185.69009399 257.90241241 C181.98410061 259.75258134 178.28239903 261.61024169 174.5909729 263.48932648 C167.45418548 267.11248892 160.36106095 270.49021637 152.8644104 273.31745148 C150.46692865 274.3044274 148.07066827 275.29413347 145.6769104 276.29010773 C142.37919028 277.4946916 139.04142981 278.48268047 135.67495728 279.47638702 C132.76379248 280.34756169 129.86871636 281.26102039 126.9737854 282.18463898 C101.49011292 290.27116969 76.38945434 294.8795076 49.90037537 298.06909943 C48.54452063 298.23448995 47.18985866 298.409975 45.83662415 298.59558868 C38.93660142 299.48086378 32.05939968 299.49620606 25.11050415 299.52057648 C23.77501895 299.52754404 22.43953413 299.53458507 21.10404968 299.54169464 C16.83666614 299.56108139 12.56933314 299.56587234 8.3019104 299.56745148 C7.57813202 299.56804062 6.85435364 299.56862976 6.10864258 299.56923676 C-15.10002899 299.58145526 -36.10587379 299.42905632 -57.1355896 296.31745148 C-58.27769897 296.15164581 -59.41980835 295.98584015 -60.5965271 295.81501007 C-70.22618184 294.38273418 -79.70124365 292.71873868 -89.1355896 290.31745148 C-90.8613686 290.00636685 -92.59040106 289.71240931 -94.3230896 289.44245148 C-99.6167028 288.50914226 -104.6232377 287.02761776 -109.7371521 285.38776398 C-113.24656499 284.28250061 -116.77605948 283.29461596 -120.3230896 282.31745148 C-125.25078909 280.92353869 -129.93603956 279.29740884 -134.6512146 277.30963898 C-137.40227296 276.21094586 -140.1841651 275.32845501 -143.0105896 274.44245148 C-148.44371929 272.67336292 -153.38658986 270.32457228 -158.45199585 267.69635773 C-160.57783295 266.6040426 -162.68070161 265.607405 -164.8855896 264.69245148 C-168.73208377 263.06508856 -172.43028877 261.2416077 -176.1355896 259.31745148 C-176.99410522 258.87401398 -177.85262085 258.43057648 -178.7371521 257.97370148 C-184.40984021 254.96957369 -189.69435107 251.68199462 -194.89730835 247.92292023 C-196.81739382 246.54568615 -198.76235996 245.26378935 -200.7605896 244.00495148 C-201.5443396 243.44807648 -202.3280896 242.89120148 -203.1355896 242.31745148 C-203.1355896 241.65745148 -203.1355896 240.99745148 -203.1355896 240.31745148 C-203.97863647 240.19756866 -203.97863647 240.19756866 -204.8387146 240.07526398 C-207.89638977 239.06643918 -209.54395506 237.39239475 -211.8855896 235.19245148 C-214.9836803 232.3127284 -218.09091128 229.48308639 -221.3230896 226.75495148 C-225.33333364 223.23999654 -228.74534832 219.42602111 -232.1355896 215.31745148 C-232.98250366 214.34292023 -233.82941772 213.36838898 -234.70199585 212.36432648 C-251.3853332 192.68850176 -259.86378651 167.05420214 -258.1355896 141.31745148 C-255.88369833 122.00737413 -248.38873415 104.41621366 -236.1355896 89.31745148 C-235.69199097 88.76847198 -235.24839233 88.21949249 -234.79135132 87.65387726 C-228.13840326 79.48141481 -221.15806671 72.17349411 -213.1355896 65.31745148 C-212.49234741 64.74897491 -211.84910522 64.18049835 -211.18637085 63.59479523 C-207.41605617 60.31745148 -207.41605617 60.31745148 -205.1355896 60.31745148 C-205.1355896 59.65745148 -205.1355896 58.99745148 -205.1355896 58.31745148 C-203.1555896 57.65745148 -201.1755896 56.99745148 -199.1355896 56.31745148 C-199.1355896 55.65745148 -199.1355896 54.99745148 -199.1355896 54.31745148 C-197.0184021 52.80963898 -197.0184021 52.80963898 -194.2605896 51.19245148 C-193.35566772 50.65362335 -192.45074585 50.11479523 -191.5184021 49.55963898 C-189.1355896 48.31745148 -189.1355896 48.31745148 -187.1355896 48.31745148 C-187.1355896 47.65745148 -187.1355896 46.99745148 -187.1355896 46.31745148 C-181.2601568 42.938812 -175.78510689 39.79512199 -169.1355896 38.31745148 C-169.1355896 37.65745148 -169.1355896 36.99745148 -169.1355896 36.31745148 C-166.25296594 34.80750575 -163.49108282 33.43056296 -160.3855896 32.44245148 C-157.51132374 31.44751329 -155.07049456 30.28533142 -152.3855896 28.87995148 C-148.19929049 26.7366666 -144.12699525 25.30504656 -139.6043396 24.05573273 C-137.18751397 23.33297949 -134.95170496 22.43790517 -132.6355896 21.44245148 C-125.79162461 18.63000961 -118.64028914 16.87343868 -111.50570679 14.96295929 C-109.22145759 14.34083786 -106.94749666 13.69084124 -104.6746521 13.02838898 C-86.44611862 7.74033745 -67.97621855 4.51139684 -49.1355896 2.31745148 C-48.49802734 2.23520325 -47.86046509 2.15295502 -47.20358276 2.06821442 C-31.49903713 0.05824154 -15.81037728 -0.04046121 0 0 Z M-67.60897827 42.97492218 C-71.1444927 43.88339893 -74.56050018 44.57784659 -78.1980896 44.87995148 C-81.68906964 45.26783815 -84.00295773 45.99838582 -87.13168335 47.50104523 C-89.70696686 48.55023481 -92.30220544 49.12835944 -95.0105896 49.75495148 C-99.57258263 50.84302932 -103.5984959 52.25532874 -107.8230896 54.26667023 C-112.14886901 56.23226932 -116.65565467 57.74319397 -121.1355896 59.31745148 C-121.1355896 59.97745148 -121.1355896 60.63745148 -121.1355896 61.31745148 C-122.3730896 61.65776398 -122.3730896 61.65776398 -123.6355896 62.00495148 C-126.56796459 63.1045921 -128.57316298 64.17495223 -131.1355896 65.87995148 C-133.79553267 67.62791406 -135.10286275 68.31231785 -138.3230896 68.81745148 C-142.16638884 69.50070468 -143.44488843 71.56112345 -146.1355896 74.31745148 C-148.46892293 75.31745148 -150.80225627 76.31745148 -153.1355896 77.31745148 C-154.82432839 78.96174977 -156.48864475 80.63129365 -158.1355896 82.31745148 C-160.43875221 83.84083478 -162.77073533 85.28647887 -165.14730835 86.69245148 C-167.55303922 88.65862838 -168.21118047 90.3909798 -169.1355896 93.31745148 C-169.7955896 93.31745148 -170.4555896 93.31745148 -171.1355896 93.31745148 C-171.1355896 93.97745148 -171.1355896 94.63745148 -171.1355896 95.31745148 C-171.7955896 95.31745148 -172.4555896 95.31745148 -173.1355896 95.31745148 C-173.1355896 95.97745148 -173.1355896 96.63745148 -173.1355896 97.31745148 C-174.6205896 97.81245148 -174.6205896 97.81245148 -176.1355896 98.31745148 C-181.72887118 104.4772717 -185.80281697 110.83112716 -188.30355835 118.79010773 C-189.29151087 121.79107149 -190.65187276 124.43089325 -192.2059021 127.17292023 C-195.05977088 133.7560041 -195.49338551 140.18288113 -195.4480896 147.25495148 C-195.44317505 148.16865509 -195.4382605 149.0823587 -195.43319702 150.02375031 C-195.22215464 162.4774152 -193.85761672 174.54975989 -187.1355896 185.31745148 C-186.75918335 185.95553741 -186.3827771 186.59362335 -185.9949646 187.25104523 C-184.88716288 189.10229929 -184.88716288 189.10229929 -183.1355896 191.31745148 C-182.4755896 191.31745148 -181.8155896 191.31745148 -181.1355896 191.31745148 C-181.03117554 191.90010773 -180.92676147 192.48276398 -180.81918335 193.08307648 C-180.03265343 195.6539057 -178.95993069 197.05145727 -177.1980896 199.06745148 C-176.41111694 199.9878421 -176.41111694 199.9878421 -175.60824585 200.92682648 C-174.23081344 202.54630711 -174.23081344 202.54630711 -172.1355896 202.31745148 C-171.9087146 203.01870148 -171.6818396 203.71995148 -171.4480896 204.44245148 C-169.79010344 208.07423069 -167.86201026 210.39153663 -165.1355896 213.31745148 C-164.1455896 213.64745148 -163.1555896 213.97745148 -162.1355896 214.31745148 C-161.4549646 215.05995148 -161.4549646 215.05995148 -160.7605896 215.81745148 C-158.66640079 217.75054884 -156.91408268 217.94197944 -154.1355896 218.31745148 C-153.8055896 219.30745148 -153.4755896 220.29745148 -153.1355896 221.31745148 C-151.50494196 222.37516886 -149.83278086 223.37018193 -148.1355896 224.31745148 C-147.4343396 224.87432648 -146.7330896 225.43120148 -146.0105896 226.00495148 C-144.1074285 227.60418265 -144.1074285 227.60418265 -141.1355896 227.31745148 C-140.8055896 228.30745148 -140.4755896 229.29745148 -140.1355896 230.31745148 C-136.75691313 232.78297214 -135.43000758 233.31745148 -131.1355896 233.31745148 C-131.1355896 233.97745148 -131.1355896 234.63745148 -131.1355896 235.31745148 C-126.49442319 238.74350936 -121.12787244 239.95807 -115.6668396 241.51081085 C-113.80667962 242.06024699 -111.9686404 242.68341678 -110.1355896 243.31745148 C-109.8055896 243.97745148 -109.4755896 244.63745148 -109.1355896 245.31745148 C-107.09406026 246.08799825 -107.09406026 246.08799825 -104.6355896 246.69245148 C-101.30603113 247.62640897 -98.28926126 248.64997548 -95.1980896 250.19245148 C-84.45455818 255.14514327 -72.10099928 257.5204083 -60.4090271 258.86042023 C-57.81619673 259.22242638 -55.39056555 259.70213862 -52.85043335 260.30182648 C-48.03407846 261.40654619 -43.23824696 261.9317016 -38.3230896 262.37995148 C-36.67049426 262.53484229 -35.0181372 262.69230176 -33.36605835 262.85260773 C-32.64829224 262.91843048 -31.93052612 262.98425323 -31.19100952 263.05207062 C-29.1355896 263.31745148 -29.1355896 263.31745148 -27.27816772 263.82453156 C-21.83315783 265.07720646 -16.01862191 264.77462649 -10.4480896 264.94245148 C-9.73706085 264.96457703 -9.0260321 264.98670258 -8.29345703 265.0094986 C1.37468483 265.29868114 11.00778259 265.37319981 20.6769104 265.00495148 C21.65168335 264.97030792 22.6264563 264.93566437 23.63076782 264.89997101 C29.21060973 264.63580785 34.53061505 263.90279662 40.00967407 262.83234406 C46.25566147 261.70579078 52.59246343 261.14443979 58.89956665 260.46198273 C64.42537804 259.83450964 69.58002146 259.06884896 74.8644104 257.31745148 C74.8644104 256.65745148 74.8644104 255.99745148 74.8644104 255.31745148 C75.51667603 255.3406546 76.16894165 255.36385773 76.8409729 255.38776398 C81.95139943 255.49328901 86.06866074 255.33671449 90.8644104 253.31745148 C90.8644104 252.65745148 90.8644104 251.99745148 90.8644104 251.31745148 C91.8337854 251.37932648 92.8031604 251.44120148 93.8019104 251.50495148 C97.61022928 251.49736518 100.63449826 250.543721 104.1847229 249.23542023 C108.68008592 247.69546351 113.31408946 246.6261075 117.92300415 245.47760773 C121.34093976 244.12949767 121.43673329 243.49356134 122.8644104 240.31745148 C125.0362854 239.34088898 125.0362854 239.34088898 127.6144104 238.69245148 C128.50386353 238.45655304 129.39331665 238.2206546 130.3097229 237.97760773 C131.15276978 237.75975616 131.99581665 237.5419046 132.8644104 237.31745148 C134.86783774 236.66115631 136.86972158 235.99984502 138.8644104 235.31745148 C138.8644104 234.65745148 138.8644104 233.99745148 138.8644104 233.31745148 C139.5862854 233.39995148 140.3081604 233.48245148 141.0519104 233.56745148 C144.77464814 233.23654146 146.08064507 231.76173323 148.8644104 229.31745148 C151.54120108 227.47344012 154.23530879 225.69400235 157.02456665 224.02448273 C158.12091431 223.36512726 158.12091431 223.36512726 159.2394104 222.69245148 C159.92776978 222.28768585 160.61612915 221.88292023 161.3253479 221.46588898 C161.83323853 221.0869046 162.34112915 220.70792023 162.8644104 220.31745148 C162.8644104 219.65745148 162.8644104 218.99745148 162.8644104 218.31745148 C163.4419104 218.23495148 164.0194104 218.15245148 164.6144104 218.06745148 C167.54235641 217.09146947 168.91685577 215.68233925 170.8644104 213.31745148 C170.8644104 212.32745148 170.8644104 211.33745148 170.8644104 210.31745148 C172.1844104 209.98745148 173.5044104 209.65745148 174.8644104 209.31745148 C175.1944104 207.99745148 175.5244104 206.67745148 175.8644104 205.31745148 C176.8544104 205.31745148 177.8444104 205.31745148 178.8644104 205.31745148 C178.8644104 204.65745148 178.8644104 203.99745148 178.8644104 203.31745148 C179.5244104 203.31745148 180.1844104 203.31745148 180.8644104 203.31745148 C180.8644104 202.65745148 180.8644104 201.99745148 180.8644104 201.31745148 C181.5244104 201.31745148 182.1844104 201.31745148 182.8644104 201.31745148 C187.76691936 196.67426919 191.55444661 191.16466974 194.8644104 185.31745148 C195.22405884 184.71545929 195.58370728 184.1134671 195.95425415 183.49323273 C198.86745641 178.24946865 200.04877999 172.82814469 201.25112915 166.97760773 C201.8644104 164.31745148 201.8644104 164.31745148 202.8644104 163.31745148 C204.43239507 145.85767185 202.84572776 126.28942751 192.8644104 111.31745148 C192.2044104 111.31745148 191.5444104 111.31745148 190.8644104 111.31745148 C190.7612854 110.59557648 190.6581604 109.87370148 190.5519104 109.12995148 C189.79094631 106.01691656 188.7735087 103.88739149 186.8644104 101.31745148 C185.8744104 101.31745148 184.8844104 101.31745148 183.8644104 101.31745148 C183.5962854 100.51307648 183.3281604 99.70870148 183.0519104 98.87995148 C182.6600354 98.03432648 182.2681604 97.18870148 181.8644104 96.31745148 C180.8744104 95.98745148 179.8844104 95.65745148 178.8644104 95.31745148 C178.8644104 94.65745148 178.8644104 93.99745148 178.8644104 93.31745148 C178.2044104 93.31745148 177.5444104 93.31745148 176.8644104 93.31745148 C176.6169104 92.69870148 176.3694104 92.07995148 176.1144104 91.44245148 C174.65812401 88.96676461 173.48628534 88.36620145 170.8644104 87.31745148 C170.8644104 86.65745148 170.8644104 85.99745148 170.8644104 85.31745148 C169.7712854 84.71932648 168.6781604 84.12120148 167.5519104 83.50495148 C164.92001945 82.00176727 162.91990674 80.55981112 160.8644104 78.31745148 C156.64778183 74.34885988 152.31695725 72.88550416 146.8644104 71.31745148 C146.8644104 70.65745148 146.8644104 69.99745148 146.8644104 69.31745148 C137.98259841 62.37635037 127.20975838 56.97199078 115.8644104 56.31745148 C115.5344104 55.32745148 115.2044104 54.33745148 114.8644104 53.31745148 C111.98683024 52.05592122 111.98683024 52.05592122 108.5519104 51.12995148 C106.82521118 50.61368195 106.82521118 50.61368195 105.06362915 50.08698273 C101.76464262 49.16154027 101.76464262 49.16154027 97.8644104 49.31745148 C97.8644104 48.65745148 97.8644104 47.99745148 97.8644104 47.31745148 C94.09429963 46.64665453 90.32321104 45.98152345 86.5519104 45.31745148 C85.48005493 45.12667023 84.40819946 44.93588898 83.30386353 44.73932648 C82.27583618 44.55885773 81.24780884 44.37838898 80.18862915 44.19245148 C78.7668335 43.94108429 78.7668335 43.94108429 77.3163147 43.68463898 C74.78313223 43.24339923 74.78313223 43.24339923 71.8644104 43.31745148 C71.8644104 42.65745148 71.8644104 41.99745148 71.8644104 41.31745148 C71.24920532 41.23180939 70.63400024 41.1461673 70.00015259 41.05792999 C67.20459003 40.66748977 64.40950104 40.2737552 61.6144104 39.87995148 C60.64632446 39.74524445 59.67823853 39.61053741 58.68081665 39.47174835 C57.27896118 39.27355499 57.27896118 39.27355499 55.8487854 39.07135773 C54.98994751 38.95091095 54.13110962 38.83046417 53.24624634 38.70636749 C51.07420241 38.35170718 48.99734787 37.85095367 46.8644104 37.31745148 C31.59078047 35.00090018 16.02122192 35.10142657 0.6144104 35.06745148 C-0.31041138 35.06236572 -1.23523315 35.05727997 -2.18807983 35.0520401 C-24.54749493 34.95332577 -45.94992934 37.31016793 -67.60897827 42.97492218 Z " fill="#F5CEC7" transform="translate(373.1355895996094,226.68254852294922)"/>
<path d="M0 0 C0.95644409 -0.00073517 1.91288818 -0.00147034 2.89831543 -0.00222778 C34.28651863 0.06072607 65.84635686 5.44270154 93.75 20.4375 C94.67554688 20.92863281 95.60109375 21.41976563 96.5546875 21.92578125 C106.39480679 27.50604059 116.35505578 34.8586784 123.75 43.4375 C124.87728516 44.74460937 124.87728516 44.74460937 126.02734375 46.078125 C131.72314968 53.13095439 134.69714896 59.63956696 136.75 68.4375 C136.93949219 69.0871875 137.12898438 69.736875 137.32421875 70.40625 C140.03945086 83.3596509 136.0302595 95.48401805 129.63671875 106.64453125 C120.25503633 120.53252903 107.22556961 129.66554189 92.65722656 137.42089844 C90.96930532 138.32060454 89.29236054 139.24083746 87.6171875 140.1640625 C80.78275549 143.79543646 73.83944913 146.17120462 66.4453125 148.34375 C63.56837567 149.19527464 60.75954167 150.11351553 57.9375 151.125 C52.960946 152.78694621 47.92437884 153.62268402 42.75 154.4375 C42.02844727 154.55625488 41.30689453 154.67500977 40.56347656 154.79736328 C23.95531502 157.52483303 7.59219803 158.78699225 -9.25 158.4375 C-11.02117187 158.41236328 -11.02117187 158.41236328 -12.828125 158.38671875 C-31.36582646 157.69648519 -50.55487759 153.96586543 -68.25 148.4375 C-68.9296582 148.22802734 -69.60931641 148.01855469 -70.30957031 147.80273438 C-93.56433975 140.39109705 -119.71182286 125.78878836 -131.5456543 103.56274414 C-137.94339045 90.96552786 -140.92894815 78.26680288 -136.6875 64.25 C-132.87350805 54.20826596 -125.6006498 41.57461271 -115.98046875 36.16015625 C-115.40941406 35.92167969 -114.83835937 35.68320312 -114.25 35.4375 C-114.25 34.7775 -114.25 34.1175 -114.25 33.4375 C-112.1379301 31.81117543 -110.03885185 30.33153057 -107.8125 28.875 C-106.8061853 28.21334839 -106.8061853 28.21334839 -105.77954102 27.53833008 C-89.26995932 16.87426444 -72.36428088 10.11032736 -53.25 5.4375 C-52.11949219 5.1590625 -50.98898437 4.880625 -49.82421875 4.59375 C-33.37685967 0.79966486 -16.81832454 -0.00567914 0 0 Z " fill="#E3B39F" transform="translate(377.25,297.5625)"/>
<path d="M0 0 C0.33 0 0.66 0 1 0 C2.07047392 28.77433885 2.07047392 28.77433885 -4 42 C-4.49935059 43.10601562 -4.49935059 43.10601562 -5.00878906 44.234375 C-10.77732385 56.68904886 -18.26703329 67.45640555 -27 78 C-27.81887695 79.00836914 -27.81887695 79.00836914 -28.65429688 80.03710938 C-29.18603516 80.67970703 -29.71777344 81.32230469 -30.265625 81.984375 C-30.74290039 82.56413086 -31.22017578 83.14388672 -31.71191406 83.74121094 C-33 85 -33 85 -35 85 C-35.268125 85.639375 -35.53625 86.27875 -35.8125 86.9375 C-37 89 -37 89 -40 90 C-40 90.66 -40 91.32 -40 92 C-41.328125 93.375 -41.328125 93.375 -43.25 95 C-43.98863281 95.62519531 -44.72726562 96.25039063 -45.48828125 96.89453125 C-46.31714844 97.58933594 -47.14601563 98.28414063 -48 99 C-48.85980469 99.74636719 -49.71960938 100.49273437 -50.60546875 101.26171875 C-63.45658211 112.26936206 -77.39000142 121.51197138 -92 130 C-92.92167969 130.56847656 -93.84335937 131.13695312 -94.79296875 131.72265625 C-154.90615617 168.4151213 -234.15340313 186.93241683 -304.19921875 187.203125 C-306.03172935 187.21364647 -306.03172935 187.21364647 -307.90126038 187.22438049 C-311.83002396 187.24180568 -315.758706 187.24881579 -319.6875 187.25 C-320.69276482 187.25066278 -320.69276482 187.25066278 -321.71833801 187.25133896 C-342.95304459 187.25867845 -363.92374048 186.8280369 -385 184 C-385.65842896 183.91278687 -386.31685791 183.82557373 -386.99523926 183.73571777 C-458.08957026 174.26582872 -529.04861319 151.76776926 -586.26171875 107.34765625 C-587.76973545 106.17851971 -589.29005821 105.02528935 -590.8125 103.875 C-608.77388072 89.85636139 -623.6870768 72.73420236 -635 53 C-635.47179687 52.18273437 -635.94359375 51.36546875 -636.4296875 50.5234375 C-637.75781806 48.05690931 -638.9026166 45.57774625 -640 43 C-640.46664062 41.91203125 -640.93328125 40.8240625 -641.4140625 39.703125 C-646.15817906 27.43470244 -645.50419368 14.96941288 -645 2 C-644.67 2 -644.34 2 -644 2 C-643.93683594 2.77859375 -643.87367188 3.5571875 -643.80859375 4.359375 C-641.47336478 25.69599335 -631.90289649 45.07026548 -619 62 C-618.38253906 62.82113281 -617.76507812 63.64226562 -617.12890625 64.48828125 C-607.91821241 76.24105694 -597.09707951 87.2373719 -585 96 C-583.86756779 96.9495394 -582.74188127 97.90721696 -581.625 98.875 C-579.12435622 101.15361651 -579.12435622 101.15361651 -576 102 C-576 102.66 -576 103.32 -576 104 C-575.01 104 -574.02 104 -573 104 C-573 104.66 -573 105.32 -573 106 C-572.34 106 -571.68 106 -571 106 C-571 106.66 -571 107.32 -571 108 C-570.360625 108.2165625 -569.72125 108.433125 -569.0625 108.65625 C-564.78396204 110.53356768 -560.96176704 113.03524241 -557 115.5 C-547.40629863 121.37369472 -537.50869736 126.25518764 -527.29077148 130.93408203 C-522.43576823 133.19316166 -517.68157685 135.64348288 -512.9375 138.125 C-509.38614846 139.90758501 -505.8291755 140.92514372 -502 142 C-500.49082809 142.64563504 -498.99113141 143.31372632 -497.5 144 C-493.73621078 145.72827056 -490.00507899 146.9217095 -486 148 C-485.21496094 148.32097656 -484.42992187 148.64195312 -483.62109375 148.97265625 C-481.02613289 149.98975715 -478.5237775 150.67478249 -475.8125 151.3125 C-471.35427345 152.39013268 -466.94533267 153.57546973 -462.53881836 154.84326172 C-454.55734238 157.13341323 -446.64275579 158.95085474 -438.453125 160.32421875 C-435 161 -435 161 -432.08984375 161.9921875 C-428.20146256 163.26045848 -424.35094188 163.84560559 -420.3125 164.4375 C-418.61454743 164.69507595 -416.91663179 164.95289539 -415.21875 165.2109375 C-414.35378906 165.34081055 -413.48882812 165.47068359 -412.59765625 165.60449219 C-409.29393264 166.10750274 -405.99582602 166.64257624 -402.69726562 167.17822266 C-398.80129863 167.80601259 -394.90103952 168.40468876 -391 169 C-389.80375 169.185625 -388.6075 169.37125 -387.375 169.5625 C-345.01787108 175.5073602 -301.43820956 174.12613017 -259 170 C-257.8155127 169.88785156 -256.63102539 169.77570313 -255.41064453 169.66015625 C-239.73034519 168.11900139 -224.41428729 165.0508667 -209.03955078 161.66748047 C-207.185974 161.26043799 -205.33056045 160.86150864 -203.47216797 160.47705078 C-198.95712866 159.53067979 -194.6890132 158.25526009 -190.33056641 156.74951172 C-186.18329001 155.41574485 -181.93485703 154.51730804 -177.6875 153.5625 C-170.71727627 151.95991761 -163.98744109 150.19210367 -157.27734375 147.69921875 C-155 147 -155 147 -151 147 C-151 146.34 -151 145.68 -151 145 C-150.030625 144.64808594 -149.06125 144.29617188 -148.0625 143.93359375 C-140.10315766 141.01196205 -132.27747689 137.92767227 -124.58203125 134.36108398 C-120.12582745 132.33909319 -115.77637178 131.07785381 -111 130 C-111 129.34 -111 128.68 -111 128 C-108.03 127.505 -108.03 127.505 -105 127 C-105 126.34 -105 125.68 -105 125 C-103.04414675 123.99515796 -101.08523763 122.99626195 -99.125 122 C-98.03445313 121.443125 -96.94390625 120.88625 -95.8203125 120.3125 C-93 119 -93 119 -91 119 C-91 118.34 -91 117.68 -91 117 C-90.04287109 116.49339844 -90.04287109 116.49339844 -89.06640625 115.9765625 C-88.24011719 115.53054688 -87.41382813 115.08453125 -86.5625 114.625 C-85.73878906 114.18414062 -84.91507813 113.74328125 -84.06640625 113.2890625 C-81.86533422 112.16581441 -81.86533422 112.16581441 -81 110 C-79.29296875 109.21875 -79.29296875 109.21875 -77.1875 108.5 C-74.34526737 107.49475794 -71.65775067 106.43961495 -69 105 C-69 104.34 -69 103.68 -69 103 C-66.98828125 101.4140625 -66.98828125 101.4140625 -64.3125 99.625 C-57.98075138 95.34738158 -57.98075138 95.34738158 -52.3125 90.25 C-51 89 -51 89 -49 89 C-48.731875 88.360625 -48.46375 87.72125 -48.1875 87.0625 C-47 85 -47 85 -44 84 C-43.67 83.01 -43.34 82.02 -43 81 C-41.328125 79.421875 -41.328125 79.421875 -39.25 77.75 C-36.42611602 75.37652045 -34.1946501 73.11740269 -32.125 70.0625 C-31.42375 69.051875 -30.7225 68.04125 -30 67 C-29.34 67 -28.68 67 -28 67 C-27.74476563 66.26394531 -27.48953125 65.52789062 -27.2265625 64.76953125 C-25.93616312 61.85585877 -24.48747513 60.05667031 -22.375 57.6875 C-16.957599 51.10009769 -13.57464046 43.68091446 -10 36 C-9.50242187 34.9584375 -9.00484375 33.916875 -8.4921875 32.84375 C-7.27470691 30.24840215 -6.11580938 27.64046495 -5 25 C-4.70351563 24.30390625 -4.40703125 23.6078125 -4.1015625 22.890625 C-1.32162657 15.56920959 -0.80666288 7.73447352 0 0 Z " fill="#CFA393" transform="translate(699,388)"/>
<path d="M0 0 C0.66 0.33 1.32 0.66 2 1 C-1.75 4 -1.75 4 -4 4 C-4.226875 4.556875 -4.45375 5.11375 -4.6875 5.6875 C-6.39848215 8.70208759 -8.372373 10.74774829 -11 13 C-12.32 13 -13.64 13 -15 13 C-15.10634766 13.84304688 -15.10634766 13.84304688 -15.21484375 14.703125 C-16.29585807 17.86549524 -18.1623954 19.45130827 -20.5625 21.75 C-21.38878906 22.54921875 -22.21507812 23.3484375 -23.06640625 24.171875 C-23.70449219 24.77515625 -24.34257812 25.3784375 -25 26 C-25.66 25.67 -26.32 25.34 -27 25 C-26.01 23.515 -26.01 23.515 -25 22 C-24.34 22 -23.68 22 -23 22 C-23 21.34 -23 20.68 -23 20 C-22.34 20 -21.68 20 -21 20 C-21 19.34 -21 18.68 -21 18 C-20.34 18 -19.68 18 -19 18 C-18.76925781 17.2471875 -18.53851563 16.494375 -18.30078125 15.71875 C-16.73532315 12.44680153 -15.22384545 11.43015063 -12.1875 9.5 C-8.29982408 6.93065574 -5.18059211 4.37937912 -2 1 C-1.34 0.67 -0.68 0.34 0 0 Z " fill="#F0DFD7" transform="translate(223,302)"/>
<path d="M0 0 C0 4.82306893 -3.37327921 7.19048063 -6.53125 10.61328125 C-9.5200645 13.50278388 -12.25408667 15.24659376 -16 17 C-16 16.34 -16 15.68 -16 15 C-15.34 15 -14.68 15 -14 15 C-13.67 14.01 -13.34 13.02 -13 12 C-12.34 12 -11.68 12 -11 12 C-10.63068359 11.12408203 -10.63068359 11.12408203 -10.25390625 10.23046875 C-8.80583817 7.65462178 -7.19766892 6.20349432 -4.9375 4.3125 C-4.22464844 3.71050781 -3.51179688 3.10851562 -2.77734375 2.48828125 C-1.89755859 1.75158203 -1.89755859 1.75158203 -1 1 C-0.67 0.67 -0.34 0.34 0 0 Z " fill="#E4C5B8" transform="translate(106,274)"/>
<path d="M0 0 C0.66 0.33 1.32 0.66 2 1 C0.89718873 2.27200971 -0.20730769 3.54255853 -1.3125 4.8125 C-1.92738281 5.52019531 -2.54226563 6.22789062 -3.17578125 6.95703125 C-6.44911047 10.6228796 -6.44911047 10.6228796 -8 12 C-8.66 12 -9.32 12 -10 12 C-10 11.01 -10 10.02 -10 9 C-8.68 8.67 -7.36 8.34 -6 8 C-5.67 6.68 -5.34 5.36 -5 4 C-4.01 4 -3.02 4 -2 4 C-2 3.34 -2 2.68 -2 2 C-1.34 2 -0.68 2 0 2 C0 1.34 0 0.68 0 0 Z M-12 12 C-11.34 12.33 -10.68 12.66 -10 13 C-11.98 13.99 -11.98 13.99 -14 15 C-13.34 14.01 -12.68 13.02 -12 12 Z " fill="#F0D8D0" transform="translate(554,428)"/>
<path d="M0 0 C21.53191489 -0.19148936 21.53191489 -0.19148936 32 1 C32 1.33 32 1.66 32 2 C29.5211787 2.19389096 27.04219069 2.38040123 24.5625 2.5625 C23.85544922 2.61857422 23.14839844 2.67464844 22.41992188 2.73242188 C20.61572163 2.86190993 18.80768048 2.93521608 17 3 C16.67 2.67 16.34 2.34 16 2 C13.30764224 1.76321284 10.63501844 1.57801975 7.9375 1.4375 C7.17888672 1.39431641 6.42027344 1.35113281 5.63867188 1.30664062 C3.75934562 1.20026367 1.87969756 1.09960066 0 1 C0 0.67 0 0.34 0 0 Z " fill="#E6C8BC" transform="translate(400,192)"/>
<path d="M0 0 C0.66 0.33 1.32 0.66 2 1 C-3.25 7.75 -3.25 7.75 -6 10 C-8.75 10.25 -8.75 10.25 -11 10 C-7.50640535 6.40365256 -3.88901869 3.16548033 0 0 Z " fill="#E4C6B5" transform="translate(118,264)"/>
<path d="M0 0 C0.33 1.32 0.66 2.64 1 4 C-0.43359375 5.921875 -0.43359375 5.921875 -2.4375 7.75 C-3.09621094 8.36359375 -3.75492187 8.9771875 -4.43359375 9.609375 C-5.20896484 10.29773438 -5.20896484 10.29773438 -6 11 C-6.66 10.67 -7.32 10.34 -8 10 C-5.36 6.7 -2.72 3.4 0 0 Z " fill="#F0E3DA" transform="translate(506,404)"/>
<path d="M0 0 C-1.12073862 0.83905565 -2.24674547 1.67107831 -3.375 2.5 C-4.00148438 2.9640625 -4.62796875 3.428125 -5.2734375 3.90625 C-7 5 -7 5 -9 5 C-8.75 3.125 -8.75 3.125 -8 1 C-4.99629127 -1.17509943 -3.43900285 -1.00214129 0 0 Z " fill="#D5B6B1" transform="translate(629,504)"/>
<path d="M0 0 C0.33 0.66 0.66 1.32 1 2 C0.22265625 3.7265625 0.22265625 3.7265625 -0.9375 5.625 C-1.618125 6.73875 -2.29875 7.8525 -3 9 C-3.99 9 -4.98 9 -6 9 C-4.47291037 5.56404834 -2.40072955 2.88087546 0 0 Z " fill="#E7C3B7" transform="translate(86,294)"/>
<path d="M0 0 C2.64 0 5.28 0 8 0 C7.67 0.66 7.34 1.32 7 2 C4.71484375 2.6328125 4.71484375 2.6328125 1.9375 3.125 C1.01839844 3.29257812 0.09929687 3.46015625 -0.84765625 3.6328125 C-1.91306641 3.81457031 -1.91306641 3.81457031 -3 4 C-2.34 3.67 -1.68 3.34 -1 3 C-0.67 2.01 -0.34 1.02 0 0 Z " fill="#D0B2A2" transform="translate(503,556)"/>
<path d="M0 0 C-3.20380017 2.13586678 -4.01939967 2.23132175 -7.6875 2.125 C-8.89986328 2.09792969 -8.89986328 2.09792969 -10.13671875 2.0703125 C-11.05904297 2.03550781 -11.05904297 2.03550781 -12 2 C-12 1.67 -12 1.34 -12 1 C-3.96428571 -1.27678571 -3.96428571 -1.27678571 0 0 Z " fill="#E5C5B6" transform="translate(263,204)"/>
<path d="M0 0 C-1.33332095 3.99996286 -3.4957827 4.83782337 -7 7 C-7.66 6.67 -8.32 6.34 -9 6 C-7.8803014 4.99406757 -6.7540588 3.9954151 -5.625 3 C-4.68527344 2.1646875 -4.68527344 2.1646875 -3.7265625 1.3125 C-2 0 -2 0 0 0 Z " fill="#EFDFD8" transform="translate(493,420)"/>
<path d="M0 0 C0.66 0.33 1.32 0.66 2 1 C-0.75 7.75 -0.75 7.75 -3 10 C-2.39009109 6.44219804 -1.4216319 3.3171411 0 0 Z " fill="#EED8D3" transform="translate(185,341)"/>
</svg>
